<mxfile host="app.diagrams.net" modified="2023-11-23T18:59:41.173Z" agent="Mozilla/5.0 (Windows NT 10.0; Win64; x64) AppleWebKit/537.36 (KHTML, like Gecko) Chrome/119.0.0.0 Safari/537.36" etag="USozykWedQl0HKtNYZfk" version="22.1.3" type="device">
  <diagram name="PÃ¡gina-1" id="ISCv18W82Yl7HlUTr54n">
    <mxGraphModel dx="1088" dy="1430" grid="1" gridSize="10" guides="1" tooltips="1" connect="1" arrows="1" fold="1" page="1" pageScale="1" pageWidth="827" pageHeight="1169" math="0" shadow="0">
      <root>
        <mxCell id="0" />
        <mxCell id="1" parent="0" />
        <mxCell id="SEekvYQBwNJy5eJfU6Gp-1" value="&lt;b&gt;STEM&lt;/b&gt;" style="rounded=0;whiteSpace=wrap;html=1;" parent="1" vertex="1">
          <mxGeometry x="80" width="100" height="40" as="geometry" />
        </mxCell>
        <mxCell id="SEekvYQBwNJy5eJfU6Gp-4" value="&lt;b&gt;MEDIA&lt;/b&gt;" style="rounded=0;whiteSpace=wrap;html=1;" parent="1" vertex="1">
          <mxGeometry x="80" y="710" width="100" height="40" as="geometry" />
        </mxCell>
        <mxCell id="SEekvYQBwNJy5eJfU6Gp-5" value="&lt;b&gt;BUSINESS&lt;/b&gt;" style="rounded=0;whiteSpace=wrap;html=1;" parent="1" vertex="1">
          <mxGeometry x="80" y="170" width="100" height="40" as="geometry" />
        </mxCell>
        <mxCell id="SEekvYQBwNJy5eJfU6Gp-6" value="&lt;b&gt;SERVICES&lt;/b&gt;" style="rounded=0;whiteSpace=wrap;html=1;" parent="1" vertex="1">
          <mxGeometry x="80" y="360" width="100" height="40" as="geometry" />
        </mxCell>
        <mxCell id="SEekvYQBwNJy5eJfU6Gp-7" value="&lt;b&gt;CREATIVE&lt;/b&gt;" style="rounded=0;whiteSpace=wrap;html=1;" parent="1" vertex="1">
          <mxGeometry x="80" y="560" width="100" height="40" as="geometry" />
        </mxCell>
        <mxCell id="SEekvYQBwNJy5eJfU6Gp-8" value="&lt;b&gt;DEVELOPER&lt;/b&gt;" style="rounded=0;whiteSpace=wrap;html=1;fillColor=#D4E1F5;" parent="1" vertex="1">
          <mxGeometry x="280" y="-100" width="100" height="40" as="geometry" />
        </mxCell>
        <mxCell id="SEekvYQBwNJy5eJfU6Gp-9" value="&lt;b&gt;ENGINEER&lt;/b&gt;" style="rounded=0;whiteSpace=wrap;html=1;fillColor=#D4E1F5;" parent="1" vertex="1">
          <mxGeometry x="280" y="-40" width="100" height="40" as="geometry" />
        </mxCell>
        <mxCell id="SEekvYQBwNJy5eJfU6Gp-10" value="&lt;b&gt;SCIENTIST&lt;/b&gt;" style="rounded=0;whiteSpace=wrap;html=1;fillColor=#D4E1F5;" parent="1" vertex="1">
          <mxGeometry x="280" y="20" width="100" height="40" as="geometry" />
        </mxCell>
        <mxCell id="SEekvYQBwNJy5eJfU6Gp-20" value="&lt;b&gt;DOCTOR&lt;/b&gt;" style="rounded=0;whiteSpace=wrap;html=1;fillColor=#D4E1F5;" parent="1" vertex="1">
          <mxGeometry x="280" y="80" width="100" height="40" as="geometry" />
        </mxCell>
        <mxCell id="SEekvYQBwNJy5eJfU6Gp-21" value="&lt;b&gt;ARCHITECT&lt;/b&gt;" style="rounded=0;whiteSpace=wrap;html=1;fillColor=#D4E1F5;" parent="1" vertex="1">
          <mxGeometry x="280" y="500" width="100" height="40" as="geometry" />
        </mxCell>
        <mxCell id="SEekvYQBwNJy5eJfU6Gp-22" value="&lt;b&gt;MECHANIC&lt;/b&gt;" style="rounded=0;whiteSpace=wrap;html=1;fillColor=#D4E1F5;" parent="1" vertex="1">
          <mxGeometry x="280" y="320" width="100" height="40" as="geometry" />
        </mxCell>
        <mxCell id="SEekvYQBwNJy5eJfU6Gp-23" value="&lt;b&gt;ENTREPENEUR&lt;/b&gt;" style="rounded=0;whiteSpace=wrap;html=1;fillColor=#D4E1F5;" parent="1" vertex="1">
          <mxGeometry x="280" y="140" width="100" height="40" as="geometry" />
        </mxCell>
        <mxCell id="SEekvYQBwNJy5eJfU6Gp-24" value="&lt;b&gt;MANAGER&lt;/b&gt;" style="rounded=0;whiteSpace=wrap;html=1;fillColor=#D4E1F5;" parent="1" vertex="1">
          <mxGeometry x="280" y="200" width="100" height="40" as="geometry" />
        </mxCell>
        <mxCell id="SEekvYQBwNJy5eJfU6Gp-25" value="&lt;b&gt;MEDIA&amp;nbsp; MANAGER&lt;/b&gt;" style="rounded=0;whiteSpace=wrap;html=1;fillColor=#D4E1F5;" parent="1" vertex="1">
          <mxGeometry x="280" y="680" width="100" height="40" as="geometry" />
        </mxCell>
        <mxCell id="SEekvYQBwNJy5eJfU6Gp-26" value="&lt;b&gt;JOURNALIST&lt;/b&gt;" style="rounded=0;whiteSpace=wrap;html=1;fillColor=#D4E1F5;" parent="1" vertex="1">
          <mxGeometry x="280" y="740" width="100" height="40" as="geometry" />
        </mxCell>
        <mxCell id="SEekvYQBwNJy5eJfU6Gp-27" value="&lt;b&gt;LAWYER&lt;/b&gt;" style="rounded=0;whiteSpace=wrap;html=1;fillColor=#D4E1F5;" parent="1" vertex="1">
          <mxGeometry x="280" y="440" width="100" height="40" as="geometry" />
        </mxCell>
        <mxCell id="SEekvYQBwNJy5eJfU6Gp-28" value="&lt;b&gt;TEACHER&lt;/b&gt;" style="rounded=0;whiteSpace=wrap;html=1;fillColor=#D4E1F5;" parent="1" vertex="1">
          <mxGeometry x="280" y="380" width="100" height="40" as="geometry" />
        </mxCell>
        <mxCell id="SEekvYQBwNJy5eJfU6Gp-29" value="&lt;b&gt;ACCOUNTANT&lt;/b&gt;" style="rounded=0;whiteSpace=wrap;html=1;fillColor=#D4E1F5;" parent="1" vertex="1">
          <mxGeometry x="280" y="260" width="100" height="40" as="geometry" />
        </mxCell>
        <mxCell id="SEekvYQBwNJy5eJfU6Gp-30" value="&lt;b&gt;MUSICIAN&lt;/b&gt;" style="rounded=0;whiteSpace=wrap;html=1;fillColor=#D4E1F5;" parent="1" vertex="1">
          <mxGeometry x="280" y="620" width="100" height="40" as="geometry" />
        </mxCell>
        <mxCell id="SEekvYQBwNJy5eJfU6Gp-31" value="&lt;b&gt;WRITER&lt;/b&gt;" style="rounded=0;whiteSpace=wrap;html=1;fillColor=#D4E1F5;" parent="1" vertex="1">
          <mxGeometry x="280" y="560" width="100" height="40" as="geometry" />
        </mxCell>
        <mxCell id="SEekvYQBwNJy5eJfU6Gp-35" value="&lt;b&gt;0&lt;/b&gt;" style="rounded=0;whiteSpace=wrap;html=1;" parent="1" vertex="1">
          <mxGeometry x="440" y="-100" width="100" height="40" as="geometry" />
        </mxCell>
        <mxCell id="SEekvYQBwNJy5eJfU6Gp-36" value="&lt;b&gt;1&lt;/b&gt;" style="rounded=0;whiteSpace=wrap;html=1;" parent="1" vertex="1">
          <mxGeometry x="440" y="-40" width="100" height="40" as="geometry" />
        </mxCell>
        <mxCell id="SEekvYQBwNJy5eJfU6Gp-37" value="&lt;b&gt;2&lt;/b&gt;" style="rounded=0;whiteSpace=wrap;html=1;" parent="1" vertex="1">
          <mxGeometry x="440" y="20" width="100" height="40" as="geometry" />
        </mxCell>
        <mxCell id="SEekvYQBwNJy5eJfU6Gp-38" value="&lt;b&gt;3&lt;/b&gt;" style="rounded=0;whiteSpace=wrap;html=1;" parent="1" vertex="1">
          <mxGeometry x="440" y="80" width="100" height="40" as="geometry" />
        </mxCell>
        <mxCell id="SEekvYQBwNJy5eJfU6Gp-39" value="&lt;b&gt;4&lt;/b&gt;" style="rounded=0;whiteSpace=wrap;html=1;" parent="1" vertex="1">
          <mxGeometry x="440" y="140" width="100" height="40" as="geometry" />
        </mxCell>
        <mxCell id="SEekvYQBwNJy5eJfU6Gp-40" value="&lt;b&gt;5&lt;/b&gt;" style="rounded=0;whiteSpace=wrap;html=1;" parent="1" vertex="1">
          <mxGeometry x="440" y="200" width="100" height="40" as="geometry" />
        </mxCell>
        <mxCell id="SEekvYQBwNJy5eJfU6Gp-41" value="&lt;b&gt;6&lt;/b&gt;" style="rounded=0;whiteSpace=wrap;html=1;" parent="1" vertex="1">
          <mxGeometry x="440" y="260" width="100" height="40" as="geometry" />
        </mxCell>
        <mxCell id="SEekvYQBwNJy5eJfU6Gp-42" value="&lt;b&gt;7&lt;/b&gt;" style="rounded=0;whiteSpace=wrap;html=1;" parent="1" vertex="1">
          <mxGeometry x="440" y="320" width="100" height="40" as="geometry" />
        </mxCell>
        <mxCell id="SEekvYQBwNJy5eJfU6Gp-43" value="&lt;b&gt;8&lt;/b&gt;" style="rounded=0;whiteSpace=wrap;html=1;" parent="1" vertex="1">
          <mxGeometry x="440" y="380" width="100" height="40" as="geometry" />
        </mxCell>
        <mxCell id="SEekvYQBwNJy5eJfU6Gp-44" value="&lt;b&gt;9&lt;/b&gt;" style="rounded=0;whiteSpace=wrap;html=1;" parent="1" vertex="1">
          <mxGeometry x="440" y="440" width="100" height="40" as="geometry" />
        </mxCell>
        <mxCell id="SEekvYQBwNJy5eJfU6Gp-45" value="&lt;b&gt;10&lt;/b&gt;" style="rounded=0;whiteSpace=wrap;html=1;" parent="1" vertex="1">
          <mxGeometry x="440" y="500" width="100" height="40" as="geometry" />
        </mxCell>
        <mxCell id="SEekvYQBwNJy5eJfU6Gp-46" value="&lt;b&gt;11&lt;/b&gt;" style="rounded=0;whiteSpace=wrap;html=1;" parent="1" vertex="1">
          <mxGeometry x="440" y="560" width="100" height="40" as="geometry" />
        </mxCell>
        <mxCell id="SEekvYQBwNJy5eJfU6Gp-47" value="&lt;b&gt;12&lt;/b&gt;" style="rounded=0;whiteSpace=wrap;html=1;" parent="1" vertex="1">
          <mxGeometry x="440" y="620" width="100" height="40" as="geometry" />
        </mxCell>
        <mxCell id="SEekvYQBwNJy5eJfU6Gp-48" value="&lt;b&gt;13&lt;/b&gt;" style="rounded=0;whiteSpace=wrap;html=1;" parent="1" vertex="1">
          <mxGeometry x="440" y="680" width="100" height="40" as="geometry" />
        </mxCell>
        <mxCell id="SEekvYQBwNJy5eJfU6Gp-49" value="&lt;b&gt;14&lt;/b&gt;" style="rounded=0;whiteSpace=wrap;html=1;" parent="1" vertex="1">
          <mxGeometry x="440" y="740" width="100" height="40" as="geometry" />
        </mxCell>
        <mxCell id="SEekvYQBwNJy5eJfU6Gp-50" value="" style="endArrow=classic;html=1;rounded=0;entryX=0;entryY=0.5;entryDx=0;entryDy=0;exitX=1;exitY=0;exitDx=0;exitDy=0;" parent="1" source="SEekvYQBwNJy5eJfU6Gp-1" target="SEekvYQBwNJy5eJfU6Gp-8" edge="1">
          <mxGeometry width="50" height="50" relative="1" as="geometry">
            <mxPoint x="430" y="330" as="sourcePoint" />
            <mxPoint x="480" y="280" as="targetPoint" />
          </mxGeometry>
        </mxCell>
        <mxCell id="SEekvYQBwNJy5eJfU6Gp-51" value="" style="endArrow=classic;html=1;rounded=0;entryX=0;entryY=0.5;entryDx=0;entryDy=0;exitX=1;exitY=0.5;exitDx=0;exitDy=0;" parent="1" source="SEekvYQBwNJy5eJfU6Gp-8" target="SEekvYQBwNJy5eJfU6Gp-35" edge="1">
          <mxGeometry width="50" height="50" relative="1" as="geometry">
            <mxPoint x="190" y="10" as="sourcePoint" />
            <mxPoint x="290" y="-70" as="targetPoint" />
          </mxGeometry>
        </mxCell>
        <mxCell id="SEekvYQBwNJy5eJfU6Gp-52" value="" style="endArrow=classic;html=1;rounded=0;entryX=0;entryY=0.5;entryDx=0;entryDy=0;exitX=1;exitY=0.25;exitDx=0;exitDy=0;" parent="1" source="SEekvYQBwNJy5eJfU6Gp-5" target="SEekvYQBwNJy5eJfU6Gp-23" edge="1">
          <mxGeometry width="50" height="50" relative="1" as="geometry">
            <mxPoint x="180" y="160" as="sourcePoint" />
            <mxPoint x="280" y="80" as="targetPoint" />
          </mxGeometry>
        </mxCell>
        <mxCell id="SEekvYQBwNJy5eJfU6Gp-53" value="" style="endArrow=classic;html=1;rounded=0;entryX=0;entryY=0.5;entryDx=0;entryDy=0;exitX=1;exitY=0;exitDx=0;exitDy=0;" parent="1" source="SEekvYQBwNJy5eJfU6Gp-6" target="SEekvYQBwNJy5eJfU6Gp-29" edge="1">
          <mxGeometry width="50" height="50" relative="1" as="geometry">
            <mxPoint x="180" y="320" as="sourcePoint" />
            <mxPoint x="280" y="260" as="targetPoint" />
            <Array as="points" />
          </mxGeometry>
        </mxCell>
        <mxCell id="SEekvYQBwNJy5eJfU6Gp-55" value="" style="endArrow=classic;html=1;rounded=0;entryX=0;entryY=0.5;entryDx=0;entryDy=0;exitX=1;exitY=0.25;exitDx=0;exitDy=0;" parent="1" source="SEekvYQBwNJy5eJfU6Gp-1" target="SEekvYQBwNJy5eJfU6Gp-9" edge="1">
          <mxGeometry width="50" height="50" relative="1" as="geometry">
            <mxPoint x="400" y="330" as="sourcePoint" />
            <mxPoint x="450" y="280" as="targetPoint" />
          </mxGeometry>
        </mxCell>
        <mxCell id="SEekvYQBwNJy5eJfU6Gp-56" value="" style="endArrow=classic;html=1;rounded=0;entryX=0;entryY=0.5;entryDx=0;entryDy=0;exitX=1;exitY=0.75;exitDx=0;exitDy=0;" parent="1" source="SEekvYQBwNJy5eJfU6Gp-1" target="SEekvYQBwNJy5eJfU6Gp-10" edge="1">
          <mxGeometry width="50" height="50" relative="1" as="geometry">
            <mxPoint x="180" y="20" as="sourcePoint" />
            <mxPoint x="290" y="-10" as="targetPoint" />
          </mxGeometry>
        </mxCell>
        <mxCell id="SEekvYQBwNJy5eJfU6Gp-57" value="" style="endArrow=classic;html=1;rounded=0;entryX=0;entryY=0.5;entryDx=0;entryDy=0;exitX=1;exitY=0.5;exitDx=0;exitDy=0;" parent="1" edge="1">
          <mxGeometry width="50" height="50" relative="1" as="geometry">
            <mxPoint x="380" y="-20.4" as="sourcePoint" />
            <mxPoint x="440" y="-20.4" as="targetPoint" />
          </mxGeometry>
        </mxCell>
        <mxCell id="SEekvYQBwNJy5eJfU6Gp-59" value="" style="endArrow=classic;html=1;rounded=0;entryX=0;entryY=0.5;entryDx=0;entryDy=0;exitX=1;exitY=0.5;exitDx=0;exitDy=0;" parent="1" edge="1">
          <mxGeometry width="50" height="50" relative="1" as="geometry">
            <mxPoint x="380" y="40" as="sourcePoint" />
            <mxPoint x="440" y="40" as="targetPoint" />
          </mxGeometry>
        </mxCell>
        <mxCell id="SEekvYQBwNJy5eJfU6Gp-60" value="" style="endArrow=classic;html=1;rounded=0;entryX=0;entryY=0.5;entryDx=0;entryDy=0;exitX=1;exitY=0.5;exitDx=0;exitDy=0;" parent="1" edge="1">
          <mxGeometry width="50" height="50" relative="1" as="geometry">
            <mxPoint x="383" y="99.41" as="sourcePoint" />
            <mxPoint x="443" y="99.41" as="targetPoint" />
          </mxGeometry>
        </mxCell>
        <mxCell id="SEekvYQBwNJy5eJfU6Gp-61" value="" style="endArrow=classic;html=1;rounded=0;entryX=0;entryY=0.5;entryDx=0;entryDy=0;exitX=1;exitY=0.5;exitDx=0;exitDy=0;" parent="1" edge="1">
          <mxGeometry width="50" height="50" relative="1" as="geometry">
            <mxPoint x="380" y="159.41" as="sourcePoint" />
            <mxPoint x="440" y="159.41" as="targetPoint" />
          </mxGeometry>
        </mxCell>
        <mxCell id="SEekvYQBwNJy5eJfU6Gp-62" value="" style="endArrow=classic;html=1;rounded=0;entryX=0;entryY=0.5;entryDx=0;entryDy=0;exitX=1;exitY=0.75;exitDx=0;exitDy=0;" parent="1" source="SEekvYQBwNJy5eJfU6Gp-5" target="SEekvYQBwNJy5eJfU6Gp-24" edge="1">
          <mxGeometry width="50" height="50" relative="1" as="geometry">
            <mxPoint x="190" y="180" as="sourcePoint" />
            <mxPoint x="290" y="170" as="targetPoint" />
          </mxGeometry>
        </mxCell>
        <mxCell id="SEekvYQBwNJy5eJfU6Gp-63" value="" style="endArrow=classic;html=1;rounded=0;entryX=0;entryY=0.5;entryDx=0;entryDy=0;exitX=1;exitY=1;exitDx=0;exitDy=0;" parent="1" source="SEekvYQBwNJy5eJfU6Gp-1" target="SEekvYQBwNJy5eJfU6Gp-20" edge="1">
          <mxGeometry width="50" height="50" relative="1" as="geometry">
            <mxPoint x="190" y="50" as="sourcePoint" />
            <mxPoint x="290" y="50" as="targetPoint" />
          </mxGeometry>
        </mxCell>
        <mxCell id="SEekvYQBwNJy5eJfU6Gp-64" value="" style="endArrow=classic;html=1;rounded=0;entryX=0;entryY=0.5;entryDx=0;entryDy=0;exitX=1;exitY=0.25;exitDx=0;exitDy=0;" parent="1" source="SEekvYQBwNJy5eJfU6Gp-6" target="SEekvYQBwNJy5eJfU6Gp-22" edge="1">
          <mxGeometry width="50" height="50" relative="1" as="geometry">
            <mxPoint x="190" y="380" as="sourcePoint" />
            <mxPoint x="290" y="290" as="targetPoint" />
          </mxGeometry>
        </mxCell>
        <mxCell id="SEekvYQBwNJy5eJfU6Gp-65" value="" style="endArrow=classic;html=1;rounded=0;entryX=0;entryY=0.5;entryDx=0;entryDy=0;exitX=1;exitY=0.75;exitDx=0;exitDy=0;" parent="1" source="SEekvYQBwNJy5eJfU6Gp-6" target="SEekvYQBwNJy5eJfU6Gp-28" edge="1">
          <mxGeometry width="50" height="50" relative="1" as="geometry">
            <mxPoint x="200" y="340" as="sourcePoint" />
            <mxPoint x="300" y="300" as="targetPoint" />
          </mxGeometry>
        </mxCell>
        <mxCell id="SEekvYQBwNJy5eJfU6Gp-66" value="" style="endArrow=classic;html=1;rounded=0;entryX=0;entryY=0.5;entryDx=0;entryDy=0;exitX=1;exitY=1;exitDx=0;exitDy=0;" parent="1" source="SEekvYQBwNJy5eJfU6Gp-6" target="SEekvYQBwNJy5eJfU6Gp-27" edge="1">
          <mxGeometry width="50" height="50" relative="1" as="geometry">
            <mxPoint x="210" y="350" as="sourcePoint" />
            <mxPoint x="310" y="310" as="targetPoint" />
          </mxGeometry>
        </mxCell>
        <mxCell id="SEekvYQBwNJy5eJfU6Gp-67" value="" style="endArrow=classic;html=1;rounded=0;entryX=0;entryY=0.5;entryDx=0;entryDy=0;exitX=1;exitY=0.25;exitDx=0;exitDy=0;" parent="1" source="SEekvYQBwNJy5eJfU6Gp-7" target="SEekvYQBwNJy5eJfU6Gp-21" edge="1">
          <mxGeometry width="50" height="50" relative="1" as="geometry">
            <mxPoint x="180" y="499" as="sourcePoint" />
            <mxPoint x="280" y="499" as="targetPoint" />
          </mxGeometry>
        </mxCell>
        <mxCell id="SEekvYQBwNJy5eJfU6Gp-68" value="" style="endArrow=classic;html=1;rounded=0;entryX=0;entryY=0.5;entryDx=0;entryDy=0;exitX=1;exitY=0.75;exitDx=0;exitDy=0;" parent="1" source="SEekvYQBwNJy5eJfU6Gp-4" target="SEekvYQBwNJy5eJfU6Gp-26" edge="1">
          <mxGeometry width="50" height="50" relative="1" as="geometry">
            <mxPoint x="290" y="450" as="sourcePoint" />
            <mxPoint x="340" y="400" as="targetPoint" />
          </mxGeometry>
        </mxCell>
        <mxCell id="SEekvYQBwNJy5eJfU6Gp-69" value="" style="endArrow=classic;html=1;rounded=0;entryX=0;entryY=0.5;entryDx=0;entryDy=0;exitX=1;exitY=0.25;exitDx=0;exitDy=0;" parent="1" source="SEekvYQBwNJy5eJfU6Gp-4" target="SEekvYQBwNJy5eJfU6Gp-25" edge="1">
          <mxGeometry width="50" height="50" relative="1" as="geometry">
            <mxPoint x="190" y="690" as="sourcePoint" />
            <mxPoint x="290" y="770" as="targetPoint" />
          </mxGeometry>
        </mxCell>
        <mxCell id="SEekvYQBwNJy5eJfU6Gp-70" value="" style="endArrow=classic;html=1;rounded=0;entryX=0;entryY=0.5;entryDx=0;entryDy=0;exitX=1;exitY=0.75;exitDx=0;exitDy=0;" parent="1" source="SEekvYQBwNJy5eJfU6Gp-7" target="SEekvYQBwNJy5eJfU6Gp-30" edge="1">
          <mxGeometry width="50" height="50" relative="1" as="geometry">
            <mxPoint x="200" y="700" as="sourcePoint" />
            <mxPoint x="300" y="780" as="targetPoint" />
          </mxGeometry>
        </mxCell>
        <mxCell id="SEekvYQBwNJy5eJfU6Gp-71" value="" style="endArrow=classic;html=1;rounded=0;entryX=0;entryY=0.5;entryDx=0;entryDy=0;exitX=1;exitY=0.5;exitDx=0;exitDy=0;" parent="1" source="SEekvYQBwNJy5eJfU6Gp-7" target="SEekvYQBwNJy5eJfU6Gp-31" edge="1">
          <mxGeometry width="50" height="50" relative="1" as="geometry">
            <mxPoint x="210" y="710" as="sourcePoint" />
            <mxPoint x="310" y="790" as="targetPoint" />
          </mxGeometry>
        </mxCell>
        <mxCell id="SEekvYQBwNJy5eJfU6Gp-73" value="&lt;b&gt;OCCUPATION&lt;/b&gt;" style="rounded=0;whiteSpace=wrap;html=1;" parent="1" vertex="1">
          <mxGeometry x="-180" y="280" width="100" height="40" as="geometry" />
        </mxCell>
        <mxCell id="SEekvYQBwNJy5eJfU6Gp-74" value="&lt;b&gt;TECHNICAL &amp;amp; ANALYTICAL&lt;/b&gt;" style="rounded=0;whiteSpace=wrap;html=1;" parent="1" vertex="1">
          <mxGeometry x="-80" y="80" width="110" height="50" as="geometry" />
        </mxCell>
        <mxCell id="SEekvYQBwNJy5eJfU6Gp-75" value="&lt;b&gt;COMMUNICATIVE &amp;amp; SERVICE-ORIENTED&lt;/b&gt;" style="rounded=0;whiteSpace=wrap;html=1;" parent="1" vertex="1">
          <mxGeometry x="-80" y="460" width="110" height="50" as="geometry" />
        </mxCell>
        <mxCell id="SEekvYQBwNJy5eJfU6Gp-76" value="" style="endArrow=classic;html=1;rounded=0;entryX=0;entryY=0.5;entryDx=0;entryDy=0;exitX=1;exitY=0;exitDx=0;exitDy=0;" parent="1" source="SEekvYQBwNJy5eJfU6Gp-74" target="SEekvYQBwNJy5eJfU6Gp-1" edge="1">
          <mxGeometry width="50" height="50" relative="1" as="geometry">
            <mxPoint x="60" y="310" as="sourcePoint" />
            <mxPoint x="110" y="260" as="targetPoint" />
          </mxGeometry>
        </mxCell>
        <mxCell id="SEekvYQBwNJy5eJfU6Gp-77" value="" style="endArrow=classic;html=1;rounded=0;entryX=0;entryY=0.5;entryDx=0;entryDy=0;exitX=0.5;exitY=1;exitDx=0;exitDy=0;" parent="1" source="SEekvYQBwNJy5eJfU6Gp-75" target="SEekvYQBwNJy5eJfU6Gp-4" edge="1">
          <mxGeometry width="50" height="50" relative="1" as="geometry">
            <mxPoint x="60" y="310" as="sourcePoint" />
            <mxPoint x="110" y="260" as="targetPoint" />
          </mxGeometry>
        </mxCell>
        <mxCell id="SEekvYQBwNJy5eJfU6Gp-78" value="" style="endArrow=classic;html=1;rounded=0;entryX=0;entryY=0;entryDx=0;entryDy=0;exitX=1;exitY=1;exitDx=0;exitDy=0;" parent="1" source="SEekvYQBwNJy5eJfU6Gp-75" target="SEekvYQBwNJy5eJfU6Gp-7" edge="1">
          <mxGeometry width="50" height="50" relative="1" as="geometry">
            <mxPoint x="40" y="520" as="sourcePoint" />
            <mxPoint x="90" y="740" as="targetPoint" />
          </mxGeometry>
        </mxCell>
        <mxCell id="SEekvYQBwNJy5eJfU6Gp-79" value="" style="endArrow=classic;html=1;rounded=0;exitX=0.5;exitY=0;exitDx=0;exitDy=0;entryX=0;entryY=0.5;entryDx=0;entryDy=0;" parent="1" source="SEekvYQBwNJy5eJfU6Gp-75" target="SEekvYQBwNJy5eJfU6Gp-6" edge="1">
          <mxGeometry width="50" height="50" relative="1" as="geometry">
            <mxPoint x="60" y="310" as="sourcePoint" />
            <mxPoint x="110" y="260" as="targetPoint" />
          </mxGeometry>
        </mxCell>
        <mxCell id="SEekvYQBwNJy5eJfU6Gp-80" value="" style="endArrow=classic;html=1;rounded=0;entryX=0;entryY=0.5;entryDx=0;entryDy=0;exitX=1;exitY=1;exitDx=0;exitDy=0;" parent="1" source="SEekvYQBwNJy5eJfU6Gp-74" target="SEekvYQBwNJy5eJfU6Gp-5" edge="1">
          <mxGeometry width="50" height="50" relative="1" as="geometry">
            <mxPoint x="60" y="310" as="sourcePoint" />
            <mxPoint x="110" y="260" as="targetPoint" />
          </mxGeometry>
        </mxCell>
        <mxCell id="SEekvYQBwNJy5eJfU6Gp-81" value="" style="endArrow=classic;html=1;rounded=0;entryX=0;entryY=1;entryDx=0;entryDy=0;exitX=0.5;exitY=0;exitDx=0;exitDy=0;" parent="1" source="SEekvYQBwNJy5eJfU6Gp-73" target="SEekvYQBwNJy5eJfU6Gp-74" edge="1">
          <mxGeometry width="50" height="50" relative="1" as="geometry">
            <mxPoint x="60" y="310" as="sourcePoint" />
            <mxPoint x="110" y="260" as="targetPoint" />
          </mxGeometry>
        </mxCell>
        <mxCell id="SEekvYQBwNJy5eJfU6Gp-82" value="" style="endArrow=classic;html=1;rounded=0;entryX=0.25;entryY=0;entryDx=0;entryDy=0;exitX=0.5;exitY=1;exitDx=0;exitDy=0;" parent="1" source="SEekvYQBwNJy5eJfU6Gp-73" target="SEekvYQBwNJy5eJfU6Gp-75" edge="1">
          <mxGeometry width="50" height="50" relative="1" as="geometry">
            <mxPoint x="60" y="310" as="sourcePoint" />
            <mxPoint x="110" y="260" as="targetPoint" />
          </mxGeometry>
        </mxCell>
        <mxCell id="suylpyf4rYVpCuA3m8Mp-1" value="" style="endArrow=classic;html=1;rounded=0;entryX=0;entryY=0.5;entryDx=0;entryDy=0;exitX=1;exitY=0.5;exitDx=0;exitDy=0;" edge="1" parent="1">
          <mxGeometry width="50" height="50" relative="1" as="geometry">
            <mxPoint x="380" y="219.63" as="sourcePoint" />
            <mxPoint x="440" y="219.63" as="targetPoint" />
          </mxGeometry>
        </mxCell>
        <mxCell id="suylpyf4rYVpCuA3m8Mp-2" value="" style="endArrow=classic;html=1;rounded=0;entryX=0;entryY=0.5;entryDx=0;entryDy=0;exitX=1;exitY=0.5;exitDx=0;exitDy=0;" edge="1" parent="1">
          <mxGeometry width="50" height="50" relative="1" as="geometry">
            <mxPoint x="380" y="280" as="sourcePoint" />
            <mxPoint x="440" y="280" as="targetPoint" />
          </mxGeometry>
        </mxCell>
        <mxCell id="suylpyf4rYVpCuA3m8Mp-3" value="" style="endArrow=classic;html=1;rounded=0;entryX=0;entryY=0.5;entryDx=0;entryDy=0;exitX=1;exitY=0.5;exitDx=0;exitDy=0;" edge="1" parent="1">
          <mxGeometry width="50" height="50" relative="1" as="geometry">
            <mxPoint x="380" y="339.75" as="sourcePoint" />
            <mxPoint x="440" y="339.75" as="targetPoint" />
          </mxGeometry>
        </mxCell>
        <mxCell id="suylpyf4rYVpCuA3m8Mp-4" value="" style="endArrow=classic;html=1;rounded=0;entryX=0;entryY=0.5;entryDx=0;entryDy=0;exitX=1;exitY=0.5;exitDx=0;exitDy=0;" edge="1" parent="1">
          <mxGeometry width="50" height="50" relative="1" as="geometry">
            <mxPoint x="380" y="399.75" as="sourcePoint" />
            <mxPoint x="440" y="399.75" as="targetPoint" />
          </mxGeometry>
        </mxCell>
        <mxCell id="suylpyf4rYVpCuA3m8Mp-5" value="" style="endArrow=classic;html=1;rounded=0;entryX=0;entryY=0.5;entryDx=0;entryDy=0;exitX=1;exitY=0.5;exitDx=0;exitDy=0;" edge="1" parent="1">
          <mxGeometry width="50" height="50" relative="1" as="geometry">
            <mxPoint x="380" y="459.75" as="sourcePoint" />
            <mxPoint x="440" y="459.75" as="targetPoint" />
          </mxGeometry>
        </mxCell>
        <mxCell id="suylpyf4rYVpCuA3m8Mp-6" value="" style="endArrow=classic;html=1;rounded=0;entryX=0;entryY=0.5;entryDx=0;entryDy=0;exitX=1;exitY=0.5;exitDx=0;exitDy=0;" edge="1" parent="1">
          <mxGeometry width="50" height="50" relative="1" as="geometry">
            <mxPoint x="380" y="519.75" as="sourcePoint" />
            <mxPoint x="440" y="519.75" as="targetPoint" />
          </mxGeometry>
        </mxCell>
        <mxCell id="suylpyf4rYVpCuA3m8Mp-7" value="" style="endArrow=classic;html=1;rounded=0;entryX=0;entryY=0.5;entryDx=0;entryDy=0;exitX=1;exitY=0.5;exitDx=0;exitDy=0;" edge="1" parent="1">
          <mxGeometry width="50" height="50" relative="1" as="geometry">
            <mxPoint x="380" y="579.75" as="sourcePoint" />
            <mxPoint x="440" y="579.75" as="targetPoint" />
          </mxGeometry>
        </mxCell>
        <mxCell id="suylpyf4rYVpCuA3m8Mp-8" value="" style="endArrow=classic;html=1;rounded=0;entryX=0;entryY=0.5;entryDx=0;entryDy=0;exitX=1;exitY=0.5;exitDx=0;exitDy=0;" edge="1" parent="1">
          <mxGeometry width="50" height="50" relative="1" as="geometry">
            <mxPoint x="380" y="639.75" as="sourcePoint" />
            <mxPoint x="440" y="639.75" as="targetPoint" />
          </mxGeometry>
        </mxCell>
        <mxCell id="suylpyf4rYVpCuA3m8Mp-9" value="" style="endArrow=classic;html=1;rounded=0;entryX=0;entryY=0.5;entryDx=0;entryDy=0;exitX=1;exitY=0.5;exitDx=0;exitDy=0;" edge="1" parent="1">
          <mxGeometry width="50" height="50" relative="1" as="geometry">
            <mxPoint x="380" y="699.75" as="sourcePoint" />
            <mxPoint x="440" y="699.75" as="targetPoint" />
          </mxGeometry>
        </mxCell>
        <mxCell id="suylpyf4rYVpCuA3m8Mp-10" value="" style="endArrow=classic;html=1;rounded=0;entryX=0;entryY=0.5;entryDx=0;entryDy=0;exitX=1;exitY=0.5;exitDx=0;exitDy=0;" edge="1" parent="1">
          <mxGeometry width="50" height="50" relative="1" as="geometry">
            <mxPoint x="380" y="759.75" as="sourcePoint" />
            <mxPoint x="440" y="759.75" as="targetPoint" />
          </mxGeometry>
        </mxCell>
      </root>
    </mxGraphModel>
  </diagram>
</mxfile>
